<svg width="86" height="72" viewBox="0 0 86 72" fill="none" xmlns="http://www.w3.org/2000/svg">
<path d="M20.7659 13.704C20.8599 9.59309 20.437 5.55268 20.4136 1.37131C22.7861 1.53574 25.2292 1.41828 27.8836 1.32432C27.2729 3.53246 27.8602 5.69362 27.3903 7.7843C27.1789 8.77092 27.5078 9.71056 27.5078 10.6737C27.5078 14.7846 27.6487 18.8955 27.4608 23.0064C27.3434 25.4259 27.8367 27.822 27.5548 30.2181C27.4608 30.9698 28.33 31.8859 27.5313 32.3792C27.038 32.7081 26.1453 32.3322 25.4171 32.3557C23.9137 32.4262 22.3868 32.1678 20.8834 32.5202C20.437 32.6376 20.2021 32.2383 20.2961 31.8624C20.7659 29.9362 20.2726 27.9629 20.5545 26.0367C20.9303 23.4527 20.672 20.8922 20.7659 18.3317C20.7659 18.0263 20.8599 17.6974 20.6015 17.3686C16.1852 17.3686 11.7454 17.3686 7.07075 17.3686C7.16472 22.3016 6.92981 27.2112 7.35265 32.3322C4.95658 32.3322 2.60749 32.3322 0.0234994 32.3322C0.516807 22.1607 0.540289 11.8247 0 1.34781C2.51352 1.32432 4.86261 1.62971 7.25868 1.27734C7.00028 5.45871 7.18821 9.52263 7.11774 13.6805C11.675 13.704 16.1382 13.704 20.7659 13.704Z" fill="#627A93"/>
<path d="M79.2581 18.684C81.6071 18.8954 83.7918 18.8249 85.9999 18.731C85.6946 20.6102 85.8825 22.3955 85.859 24.1808C85.8355 26.248 85.8355 28.3387 85.859 30.4059C85.859 31.0167 85.6946 31.2751 85.0603 31.4395C80.5736 32.708 76.0163 33.3658 71.3886 33.0134C65.187 32.5436 58.3277 29.3488 56.4719 21.8318C55.1565 16.5463 56.0021 11.4488 59.4318 7.00904C62.7205 2.7572 67.3012 1.15981 72.4927 0.830942C75.9224 0.619525 79.2581 0.76047 82.4998 2.00548C83.228 2.28737 83.9327 2.59276 84.661 2.85116C85.4127 3.13305 85.5301 3.60287 85.2952 4.33108C84.9429 5.45864 84.6375 6.60969 84.3086 7.80773C83.8858 7.99565 83.5569 7.85471 83.2515 7.45536C79.9393 2.92163 72.7511 2.16992 68.4288 5.5526C65.6804 7.69027 64.13 10.6266 63.5662 14.0328C63.0024 17.392 63.1199 20.7042 64.4588 23.9694C66.0092 27.7515 69.9087 30.5938 74.0196 30.4764C75.4291 30.4294 76.7915 30.3589 78.1775 30.0536C79.2581 29.8187 79.5165 29.3253 79.54 28.3152C79.6339 25.4728 79.1171 22.6304 79.2815 19.7881C79.2815 19.4827 79.2581 19.1773 79.2581 18.684Z" fill="#627A93"/>
<path d="M41.885 29.067C45.4322 28.9965 48.7679 29.2549 52.1975 28.7381C52.1975 30.0066 52.1975 31.1107 52.1975 32.2852C46.4423 32.2852 40.734 32.2852 34.8848 32.2852C35.566 21.9727 35.472 11.7307 34.9083 1.32427C37.3748 1.39475 39.7944 1.5122 42.2609 1.30078C41.7676 10.5797 42.1669 19.7411 41.885 29.067Z" fill="#627A93"/>
<path d="M0.0843494 40.0328C0.484826 40.0328 0.822073 40.0328 1.18039 40.0328C28.8555 40.0328 56.5094 40.0328 84.1845 40.0328C84.7325 40.0328 85.6178 39.7377 85.2805 40.9181C84.9222 41.1288 84.5428 41.0445 84.1634 41.0445C56.4884 41.0445 28.8344 41.0445 1.15931 41.0445C0.59021 41.0445 -0.273972 41.3185 0.0843494 40.0328Z" fill="#434D48"/>
<path d="M75.248 59.5205C75.248 55.5579 75.248 51.7217 75.248 47.7169C77.2083 47.7591 79.1474 47.5905 81.0866 47.8223C81.8665 47.9066 82.6885 47.9488 83.384 48.3282C84.5644 48.9605 85.3443 49.8879 85.6394 51.258C86.0609 53.2604 86.0609 55.1574 84.9227 56.9279C83.9321 58.4666 82.4145 59.2675 80.6861 59.4362C78.9367 59.668 77.145 59.5205 75.248 59.5205ZM76.7235 48.6865C76.7235 51.4055 76.7024 54.0613 76.7235 56.7382C76.7446 59.3518 76.2387 59.2254 79.2317 59.0989C80.8547 59.0357 82.4566 58.5509 83.363 56.949C84.3747 55.1785 84.459 53.2815 83.9532 51.3423C83.5316 49.6982 82.4777 48.8341 80.7704 48.56C79.4425 48.3071 78.1568 48.4125 76.7235 48.6865Z" fill="#434D48"/>
<path d="M0.231445 59.436C0.231445 55.5156 0.231445 51.6162 0.231445 47.6746C0.653 47.4217 1.09563 47.5482 1.66473 47.5693C1.66473 49.2133 1.66473 50.8363 1.66473 52.5225C4.08867 52.5225 6.38615 52.5225 8.81008 52.5225C8.81008 50.8995 8.81008 49.2555 8.81008 47.6746C9.33703 47.4639 9.7375 47.5482 10.1591 47.5482C10.4541 47.8854 10.3277 48.2859 10.3277 48.6653C10.3487 51.8691 10.3277 55.0518 10.3277 58.2557C10.3277 59.6046 10.3277 59.6046 8.85223 59.5203C8.85223 57.539 8.85223 55.5577 8.85223 53.5342C6.44937 53.5342 4.1519 53.5342 1.6858 53.5342C1.6858 55.1362 1.6858 56.7381 1.6858 58.34C1.6858 59.5836 1.62258 59.6257 0.231445 59.436Z" fill="#434D48"/>
<path d="M34.9684 48.2649C34.7787 48.6442 34.8419 49.129 34.3572 49.4452C33.219 48.2859 31.8067 47.8644 30.1627 47.9276C28.0127 47.9908 26.4952 48.9604 25.8839 51.0471C25.1673 53.4711 25.1462 55.8318 27.0853 57.8552C28.6029 59.436 31.322 59.3517 33.0293 58.7405C33.5562 58.5508 33.4719 58.1925 33.4719 57.8131C33.4719 56.5906 33.4719 55.368 33.4719 54.1245C33.9988 54.1245 34.4204 54.1245 34.9684 54.1245C34.9684 55.5999 34.9684 57.0964 34.9684 58.5929C34.9684 59.1199 34.5047 59.2253 34.1674 59.2885C32.1861 59.7101 30.2049 59.9841 28.1814 59.5625C25.7996 59.0777 23.9448 56.8435 23.7972 54.3985C23.6497 51.8902 24.2188 49.7403 26.4741 48.3702C28.0549 47.4007 29.8254 47.1688 31.6803 47.4639C32.7974 47.6114 33.9145 47.7168 34.9684 48.2649Z" fill="#434D48"/>
<path d="M12.3516 59.4359C14.1642 55.3468 15.9348 51.3209 17.8318 47C19.6444 51.342 21.3518 55.3679 23.038 59.3937C21.4361 59.752 21.3939 59.7309 20.9091 58.2977C19.6655 54.6512 19.6445 54.6512 15.8083 54.9041C15.2814 54.9463 15.0917 55.1992 14.9441 55.6208C14.5647 56.6536 14.101 57.6653 13.8059 58.7403C13.5741 59.478 13.2157 59.7099 12.3516 59.4359ZM19.2861 54.0189C18.696 52.6067 18.2322 51.2577 17.3891 49.7823C16.7357 51.3209 16.1666 52.6278 15.5765 54.0189C16.8411 54.0189 17.9793 54.0189 19.2861 54.0189Z" fill="#434D48"/>
<path d="M62.3057 59.4148C64.0973 55.3679 65.8889 51.3209 67.7859 47C69.6196 51.3631 71.3059 55.41 73.0132 59.478C71.348 59.6256 71.3691 59.6045 70.8 58.0869C70.3995 57.0541 70.1887 55.7473 69.451 55.0938C68.7133 54.4615 67.3643 55.0095 66.2894 54.8831C65.383 54.7777 64.9615 55.136 64.7085 55.9791C64.4345 56.9065 63.9919 57.7707 63.739 58.7192C63.5282 59.5202 63.1277 59.731 62.3057 59.4148ZM67.3222 49.7823C66.6688 51.342 66.0997 52.6278 65.5306 53.9767C66.8163 53.9767 67.9756 53.9767 69.2192 53.9767C68.7344 52.8385 68.3128 51.7846 67.8491 50.7308C67.7648 50.4989 67.6173 50.2881 67.3222 49.7823Z" fill="#434D48"/>
<path d="M43.6728 48.623C42.2817 48.4544 40.9538 48.2436 39.4994 48.4544C39.4994 49.8455 39.4994 51.2577 39.4994 52.8174C40.6587 52.8174 41.818 52.8385 42.9562 52.8174C43.5253 52.7964 43.7361 53.0071 43.5042 53.6606C42.2185 53.6606 40.8906 53.6606 39.4994 53.6606C39.4994 55.3679 39.4994 56.9908 39.4994 58.656C40.996 58.656 42.4292 58.656 43.9468 58.656C44.1155 58.8668 44.0522 59.1829 43.9679 59.5202C42.0077 59.5202 40.0475 59.5202 38.0029 59.5202C38.0029 55.5997 38.0029 51.6582 38.0029 47.6323C39.8788 47.6323 41.7758 47.6323 43.7361 47.6323C43.8625 47.9274 43.8415 48.2436 43.6728 48.623Z" fill="#434D48"/>
<path d="M51.661 49.6561C51.113 48.4546 50.4385 47.8434 49.2371 47.9277C48.2464 48.012 47.572 48.4335 47.2558 49.361C46.8975 50.457 47.2769 51.4266 48.2465 51.9535C48.9842 52.354 49.743 52.6912 50.5018 53.0074C51.7453 53.5344 52.6095 54.3985 52.6095 55.7897C52.6306 57.1808 52.1248 58.4033 50.839 59.12C49.4901 59.8788 48.0567 60.0052 46.6024 59.4783C45.5485 59.0989 45.401 58.5509 46.0754 57.4337C46.8132 58.2347 47.4244 59.2253 48.7523 59.12C49.9748 59.0146 50.9233 58.3822 51.1763 57.3705C51.4924 56.0426 51.1341 55.2417 49.8905 54.5882C49.0685 54.1456 48.2043 53.7451 47.3823 53.3236C46.1808 52.6912 45.7382 51.7006 45.9068 50.0565C46.0122 49.0659 47.024 47.8012 48.0146 47.5694C48.8156 47.3797 49.6376 47.211 50.5018 47.4218C52.1037 47.8223 52.1037 47.8012 51.661 49.6561Z" fill="#434D48"/>
<path d="M62.7479 47.7798C62.9165 48.8547 62.2842 48.918 61.6097 48.7072C60.7666 48.4543 59.9656 48.644 59.0171 48.5597C59.0171 52.2483 59.0171 55.8526 59.0171 59.4779C58.4902 59.4779 58.0686 59.4779 57.5206 59.4779C57.5206 57.6652 57.5206 55.8736 57.5206 54.0609C57.5206 52.2693 57.5206 50.4988 57.5206 48.6018C56.3192 48.5386 55.181 48.4754 54.0638 48.7283C53.8531 48.4332 53.9585 48.1381 53.9795 47.7798C56.8672 47.7798 59.7759 47.7798 62.7479 47.7798Z" fill="#434D48"/>
<path d="M15.1548 64.5178C14.5857 66.2251 14.101 67.7427 13.5951 69.2393C13.4897 69.5765 13.4897 70.0613 12.9838 70.1034C12.3937 70.1456 12.4358 69.6187 12.3304 69.3025C11.6981 67.3001 11.0868 65.2977 10.4756 63.2743C11.1501 63.0635 11.4452 63.1689 11.5927 63.8434C11.9932 65.5085 12.4147 67.1736 13.1735 68.9231C13.7426 67.6584 14.0799 66.4992 14.3961 65.2977C14.5436 64.7286 14.7965 64.2017 14.9441 63.6326C15.0073 63.4007 14.9652 63.1689 15.3235 63.1478C15.7029 63.1267 15.8083 63.3796 15.8926 63.6326C16.293 64.834 16.6514 66.0565 17.0308 67.279C17.1994 67.827 17.4102 68.354 17.642 69.0285C18.5905 67.0261 18.6959 64.8551 19.7287 63.0635C19.8552 63.1056 20.0027 63.1689 20.1292 63.211C19.3915 65.382 18.6748 67.553 17.9371 69.724C17.8528 69.9981 17.7052 70.1034 17.4102 70.1034C17.0518 70.0824 17.0518 69.8294 16.9886 69.6187C16.5881 68.3751 16.1666 67.1315 15.7661 65.8879C15.6607 65.4663 15.6186 65.0026 15.1548 64.5178Z" fill="#434D48"/>
<path d="M32.8816 66.9126C32.8816 67.7768 32.8605 68.641 32.8816 69.5051C32.9027 70.1164 32.6076 70.2007 32.0596 70.011C32.0596 67.7768 32.0596 65.5636 32.0596 63.1818C33.0713 63.2029 34.083 63.0764 35.1158 63.3083C35.8746 63.498 36.2541 63.8985 36.4016 64.594C36.5491 65.3107 36.1065 65.7955 35.6006 66.1749C35.2423 66.4489 34.8208 66.5964 34.3781 66.8283C35.2212 67.8822 36.0644 68.936 36.9285 70.011C36.1697 70.2429 35.7482 70.011 35.3055 69.3998C34.6732 68.4723 33.9987 67.5449 33.1767 66.7861C33.0924 66.8283 32.987 66.8704 32.8816 66.9126ZM32.9449 66.4278C33.9777 66.6386 34.7786 66.4489 35.2634 65.6479C35.5374 65.1842 35.6217 64.4886 35.2845 64.0671C34.6943 63.3083 33.809 63.5823 32.9449 63.6245C32.9449 64.594 32.9449 65.5004 32.9449 66.4278Z" fill="#434D48"/>
<path d="M37.4974 66.7017C37.4342 64.594 38.741 62.9288 41.6708 63.1396C43.6732 63.2872 45.1065 64.5729 45.0643 66.6174C45.0011 69.0414 43.5889 70.2217 41.186 70.306C38.9728 70.3482 37.4131 68.9149 37.4974 66.7017ZM44.0315 66.6174C44.0315 64.5097 42.9987 63.3504 41.1649 63.3715C39.3733 63.3925 38.3405 64.5729 38.3405 66.6174C38.3405 68.7252 39.3733 69.9266 41.2071 69.9056C43.0408 69.9056 44.0315 68.7674 44.0315 66.6174Z" fill="#434D48"/>
<path d="M30.3312 66.9422C30.3312 67.8485 30.3312 68.5862 30.3312 69.3029C30.3312 69.598 30.2469 69.8088 29.9518 69.9563C28.6028 70.6519 25.9259 70.2514 24.7667 69.2397C23.5652 68.2069 23.6285 66.8579 23.8814 65.5721C24.1554 64.2232 25.2093 63.3379 26.6004 63.1482C27.6543 63.0006 28.7504 63.0428 29.8042 63.3168C30.3523 63.4644 30.2469 63.7173 30.015 64.1178C28.4763 63.359 26.8534 62.6634 25.4412 64.2442C24.324 65.4878 24.3451 67.427 25.2725 68.6916C26.1578 69.8931 27.3592 70.146 29.2773 69.4926C29.2773 69.1132 29.2773 68.6916 29.2773 68.2701C29.2773 67.8485 29.2773 67.448 29.2773 67.0686C29.6145 66.8157 29.9307 67.0265 30.3312 66.9422Z" fill="#434D48"/>
<path d="M46.5814 63.2446C47.2559 63.0549 47.4667 63.2446 47.4456 63.8348C47.4245 65.0573 47.4456 66.3009 47.4456 67.5234C47.4245 68.9778 48.3309 69.7577 49.448 69.9052C50.4808 70.0527 51.345 69.1042 51.6612 67.9028C51.9984 66.5749 51.7455 65.2681 51.8509 63.9402C51.872 63.624 51.6612 63.076 52.4621 63.2446C52.42 64.973 52.6097 66.7014 52.2514 68.4298C52.0195 69.5469 50.3965 70.4743 49.0897 70.3478C47.6143 70.1792 46.6447 69.2729 46.6025 67.9239C46.5604 66.3641 46.5814 64.8255 46.5814 63.2446Z" fill="#434D48"/>
<path d="M10.4329 70.0189C9.8006 70.1875 9.35797 70.1454 9.21042 69.4287C9.12611 69.0072 8.80995 68.6067 8.72564 68.1851C8.59917 67.6582 8.30408 67.5317 7.8193 67.5739C7.71391 67.5949 7.60852 67.5739 7.50313 67.5739C5.75368 67.5739 5.75368 67.5739 5.14242 69.2179C4.99488 69.5973 5.03704 70.2929 4.17285 69.9978C5.20566 67.7214 6.23846 65.4661 7.35558 63C8.45163 65.445 9.44227 67.7214 10.4329 70.0189ZM6.13308 66.8994C6.84972 66.8994 7.48205 66.8994 8.24085 66.8994C7.88253 66.1617 7.58744 65.4872 7.20804 64.7073C6.68109 65.445 6.36493 66.0984 6.13308 66.8994Z" fill="#434D48"/>
<path d="M55.2234 67.047C55.2234 67.9112 55.2023 68.7121 55.2234 69.5131C55.2445 70.1454 54.9283 70.1876 54.4014 69.9979C54.4014 67.7636 54.4014 65.5294 54.4014 63.1898C55.3709 63.1898 56.3405 63.1265 57.289 63.2108C58.1532 63.2741 58.7012 63.8221 58.7434 64.6863C58.7856 65.6137 58.3008 66.3303 57.4366 66.7308C56.8042 67.0259 56.0876 66.9416 55.2234 67.047ZM55.2445 63.6324C55.2445 64.4966 55.2445 65.3397 55.2445 66.1617C55.2445 66.499 55.392 66.6676 55.7293 66.7097C56.4248 66.7941 57.0572 66.6044 57.4787 66.0353C57.9635 65.424 57.816 64.6863 57.6263 64.0539C57.4576 63.4427 56.7832 63.5902 56.2562 63.5902C55.9611 63.5692 55.645 63.6113 55.2445 63.6324Z" fill="#434D48"/>
<path d="M65.0034 67.047C64.7716 68.122 65.151 69.1126 64.7505 70.04C64.7083 70.1033 64.3711 70.04 64.1182 70.04C64.1182 67.7426 64.1182 65.4873 64.1182 63.1266C65.0245 63.1266 65.8887 63.1055 66.7529 63.1266C67.6803 63.1687 68.3126 63.6324 68.4812 64.602C68.6077 65.3186 67.9332 66.3514 67.1955 66.6887C66.4999 67.047 65.7622 66.9205 65.0034 67.047ZM64.9402 63.6324C64.9402 64.4966 64.9402 65.3186 64.9402 66.1617C64.9402 66.499 65.0877 66.6887 65.425 66.7098C66.1205 66.7941 66.7318 66.6044 67.1955 66.0353C67.6803 65.424 67.5327 64.6863 67.343 64.054C67.1744 63.4427 66.4999 63.5692 65.973 63.5903C65.6568 63.5692 65.3617 63.6113 64.9402 63.6324Z" fill="#434D48"/>
<path d="M84.8587 64.1172C82.8563 63.1476 81.6549 63.2108 80.7486 64.2858C79.9265 65.2343 79.7579 67.595 80.58 68.7332C81.7392 70.3351 83.2568 70.1665 84.9009 69.1758C84.5637 69.9557 84.1421 70.1875 83.0671 70.314C81.4441 70.5037 79.505 69.1758 79.2731 67.5739C78.9991 65.6137 79.6104 63.7799 81.5074 63.3162C82.498 63.0633 83.4887 63.0844 84.4793 63.3373C84.9852 63.4427 85.0063 63.6745 84.8587 64.1172Z" fill="#434D48"/>
<path d="M70.6101 69.6186C71.6008 69.6607 72.4439 69.7029 73.2659 69.745C73.2659 69.8504 73.2659 69.9347 73.2659 70.0401C72.1277 70.1666 70.9895 70.1034 69.7881 70.0823C69.7881 67.7848 69.7881 65.5717 69.7881 63.2953C70.3783 63.0002 70.6101 63.1899 70.6101 63.8854C70.6101 65.7403 70.6101 67.6162 70.6101 69.6186Z" fill="#434D48"/>
<path d="M74.8887 63.2114C75.6264 62.9796 75.6896 63.359 75.6896 63.907C75.6685 65.7829 75.6896 67.6588 75.6896 69.6823C76.6592 69.6823 77.5023 69.6823 78.3454 69.6823C78.3454 69.7666 78.3454 69.872 78.3454 69.9563C77.2283 69.9563 76.0901 69.9563 74.8887 69.9563C74.8887 67.7853 74.8887 65.53 74.8887 63.2114Z" fill="#434D48"/>
<path d="M0.0634766 63.2114C0.801197 62.9796 0.864428 63.359 0.864428 63.907C0.84335 65.7829 0.864428 67.6588 0.864428 69.6823C1.834 69.6823 2.67711 69.6823 3.52022 69.6823C3.52022 69.7666 3.52022 69.872 3.52022 69.9563C2.38202 69.9563 1.26491 69.9563 0.0634766 69.9563C0.0634766 67.7853 0.0634766 65.53 0.0634766 63.2114Z" fill="#434D48"/>
<path d="M57.8584 71.6635C58.0692 70.989 58.28 70.2934 58.5329 69.64C58.6383 69.366 58.7437 68.9655 59.1441 69.1552C59.5657 69.3449 59.3549 69.6822 59.1863 69.9351C58.8069 70.5463 58.4275 71.1365 58.0481 71.7267C57.9849 71.7056 57.9216 71.6845 57.8584 71.6635Z" fill="#434D48"/>
</svg>
