<svg width="98" height="38" viewBox="0 0 98 38" fill="none" xmlns="http://www.w3.org/2000/svg">
<path d="M23.4426 15.1422C23.5486 10.5014 23.0713 5.94017 23.0448 1.21984C25.7232 1.40547 28.4811 1.27288 31.4777 1.1668C30.7882 3.65956 31.4512 6.09928 30.9208 8.45945C30.6822 9.57323 31.0534 10.634 31.0534 11.7213C31.0534 16.362 31.2125 21.0028 31.0004 25.6436C30.8678 28.375 31.4247 31.0799 31.1065 33.7848C31.0004 34.6334 31.9816 35.6676 31.0799 36.2245C30.523 36.5958 29.5153 36.1715 28.6933 36.198C26.9961 36.2776 25.2723 35.9859 23.5751 36.3837C23.0713 36.5163 22.8061 36.0654 22.9122 35.6411C23.4426 33.4666 22.8857 31.239 23.2039 29.0645C23.6282 26.1474 23.3365 23.2569 23.4426 20.3664C23.4426 20.0216 23.5486 19.6504 23.2569 19.2791C18.2714 19.2791 13.2594 19.2791 7.98214 19.2791C8.08822 24.848 7.82303 30.3904 8.30037 36.1715C5.59546 36.1715 2.94359 36.1715 0.0265284 36.1715C0.583421 24.6889 0.60993 13.0207 0 1.19332C2.8375 1.1668 5.48938 1.51155 8.19429 1.11377C7.90258 5.8341 8.11474 10.4218 8.03518 15.1156C13.1798 15.1422 18.2184 15.1422 23.4426 15.1422Z" fill="#627A93"/>
<path d="M89.4742 20.7641C92.126 21.0028 94.5923 20.9232 97.085 20.8172C96.7403 22.9387 96.9524 24.9541 96.9259 26.9695C96.8994 29.3032 96.8994 31.6633 96.9259 33.997C96.9259 34.6865 96.7403 34.9782 96.0243 35.1638C90.9592 36.5958 85.8146 37.3383 80.5904 36.9405C73.5894 36.4102 65.846 32.8036 63.751 24.3176C62.266 18.3509 63.2206 12.5964 67.0924 7.58433C70.805 2.78444 75.9761 0.981162 81.8368 0.6099C85.7085 0.371231 89.4742 0.530343 93.1337 1.93584C93.9558 2.25406 94.7514 2.5988 95.5735 2.89051C96.4221 3.20874 96.5547 3.73911 96.2895 4.56119C95.8917 5.83409 95.5469 7.13351 95.1757 8.48596C94.6983 8.69811 94.3271 8.539 93.9823 8.08818C90.2432 2.97007 82.1285 2.12147 77.249 5.94016C74.1463 8.35337 72.3961 11.6682 71.7597 15.5134C71.1232 19.3056 71.2558 23.0447 72.7674 26.7308C74.5176 31.0003 78.9197 34.2091 83.5605 34.0765C85.1516 34.0235 86.6897 33.9439 88.2543 33.5992C89.4742 33.334 89.7659 32.7771 89.7924 31.6368C89.8985 28.428 89.315 25.2193 89.5007 22.0105C89.5007 21.6658 89.4742 21.321 89.4742 20.7641Z" fill="#627A93"/>
<path d="M47.2825 32.4854C51.2868 32.4059 55.0524 32.6976 58.9242 32.1141C58.9242 33.5462 58.9242 34.7925 58.9242 36.1185C52.4271 36.1185 45.983 36.1185 39.3799 36.1185C40.1489 24.4768 40.0429 12.9146 39.4064 1.16681C42.1909 1.24637 44.9223 1.37896 47.7068 1.14029C47.1499 11.6152 47.6007 21.9575 47.2825 32.4854Z" fill="#627A93"/>
</svg>
