<svg width="59" height="31" viewBox="0 0 59 31" fill="none" xmlns="http://www.w3.org/2000/svg">
<path fill-rule="evenodd" clip-rule="evenodd" d="M52.9538 11.9517C51.792 11.9523 50.6549 11.6172 49.6808 10.9871L44.3985 16.9369C45.5084 18.6876 45.63 20.885 44.7204 22.7466C43.8111 24.6082 41.9994 25.8693 39.9309 26.0807C37.8625 26.2924 35.8312 25.4242 34.5603 23.7854C33.2897 22.1466 32.9606 19.9702 33.6898 18.0317L26.4896 14.4541C25.6835 15.8156 24.3672 16.802 22.8301 17.1971C21.2932 17.5918 19.6614 17.3624 18.2944 16.5589L11.5 22.274L11.2514 22.0004C12.2689 23.7576 12.3261 25.9075 11.4036 27.7161C10.4808 29.5244 8.70334 30.7465 6.67765 30.9651C4.6523 31.1834 2.65287 30.3684 1.3629 28.7985C0.0725859 27.2288 -0.33373 25.1165 0.282308 23.1832C0.898371 21.2496 2.45367 19.7567 4.41691 19.2145C6.38016 18.6725 8.48579 19.1539 10.0144 20.4948L16.56 14.9947C15.3894 13.462 15.0327 11.4616 15.601 9.62129C16.1698 7.78094 17.5942 6.32617 19.4276 5.71345C21.261 5.10044 23.2789 5.40449 24.8479 6.53036C26.4167 7.65627 27.3447 9.46579 27.3404 11.3913C27.3365 11.6793 27.3125 11.9666 27.2684 12.2514L34.9202 16.044C35.9117 14.9666 37.2662 14.2892 38.7261 14.1402C40.1861 13.9912 41.6503 14.3811 42.8407 15.2359L48.0773 9.37094C47.0506 7.89715 46.7439 6.0418 47.2423 4.31825C47.7407 2.59478 48.9908 1.18543 50.6474 0.480454C52.304 -0.224526 54.1909 -0.150552 55.7866 0.681732C57.3827 1.51402 58.5178 3.01658 58.8784 4.77415C59.2394 6.53139 58.7873 8.35699 57.6473 9.74565C56.5075 11.1347 54.801 11.9398 52.9995 11.9385L52.9538 11.9517Z" fill="white"/>
</svg>
