<svg width="33" height="37" viewBox="0 0 33 37" fill="none" xmlns="http://www.w3.org/2000/svg">
<path d="M13.3218 18.79H13.5533L22.0416 19.0987C23.0062 19.1372 23.8551 19.5231 24.511 20.2563C24.5495 20.2947 24.6267 20.372 24.704 20.4492L29.9129 18.8287C29.9901 18.7902 30.1059 18.7902 30.1831 18.7902C31.9581 16.7838 32.9997 14.1603 32.9997 11.305C32.9997 5.05452 27.9453 0 21.6946 0C15.444 0 10.3896 5.05439 10.3896 11.305C10.3896 14.1988 11.47 16.8223 13.2449 18.8288L13.3216 18.8285L13.3218 18.79ZM20.6527 5.0542V4.01237C20.6527 3.78091 20.8457 3.58794 21.0771 3.58794H22.2731C22.5046 3.58794 22.6976 3.78091 22.6976 4.01237V5.0542C23.9324 5.20842 24.897 6.17299 25.0512 7.44632C25.0512 7.56205 25.0127 7.67778 24.9354 7.75502C24.8197 7.79351 24.704 7.87075 24.5883 7.87075H23.3922C23.1993 7.87075 23.045 7.75502 23.0063 7.56205C22.929 7.25334 22.6591 7.06038 22.3889 7.06038H21.3085C20.7684 7.06038 20.2667 7.44632 20.2282 7.98645C20.1897 8.29516 20.3054 8.5651 20.4984 8.75806C20.6914 8.98952 20.9613 9.10525 21.27 9.10525H22.1961C23.0449 9.10525 23.8938 9.45244 24.4725 10.1084C25.0511 10.7642 25.3213 11.5746 25.2441 12.462C25.1283 13.7737 24.1253 14.8541 22.7747 15.1243V16.2046C22.7747 16.4361 22.5817 16.6291 22.3503 16.6291H21.1543C20.9228 16.6291 20.7298 16.4361 20.7298 16.2046V15.1628C19.495 15.0086 18.5304 14.044 18.3762 12.7707C18.3762 12.655 18.4147 12.5392 18.4919 12.462C18.5692 12.3847 18.6849 12.3078 18.8007 12.3078H19.958C20.1509 12.3078 20.3051 12.4235 20.3824 12.6165C20.4596 12.9252 20.7296 13.1181 20.9998 13.1181H22.0801C22.6203 13.1181 23.122 12.7322 23.1605 12.1921C23.199 11.8834 23.0832 11.6134 22.8903 11.4205C22.6973 11.189 22.4273 11.0733 22.1186 11.0733H21.347C19.7265 11.0733 18.3375 9.87725 18.1831 8.3337C18.0288 6.7517 19.0707 5.32415 20.6527 5.0542Z" fill="white"/>
<path d="M2.36438 28.1658L0.164979 31.0595C-0.104969 31.3682 -0.0277255 31.8311 0.280978 32.1014L6.06852 36.4614C6.41571 36.6929 6.87892 36.6544 7.11035 36.3072L9.30975 33.4134L2.5189 28.2815C2.48014 28.243 2.40314 28.2045 2.36438 28.1658Z" fill="white"/>
<path d="M30.453 20.7576L25.1671 22.4166V22.8025C25.0898 24.3073 24.0095 25.5421 22.5435 25.8505L22.1964 25.9277C20.2672 26.3137 18.2995 26.5836 16.3316 26.6221L14.7111 26.6606C14.2094 26.6606 13.785 26.2746 13.785 25.8117C13.785 25.3101 14.1709 24.8857 14.6338 24.8857L16.2543 24.8472C18.1063 24.7699 19.9969 24.5385 21.8104 24.1913L22.1576 24.1141C22.8135 23.9598 23.3152 23.4197 23.3537 22.725C23.3921 22.3391 23.2379 21.9534 22.9677 21.6447C22.6975 21.336 22.3118 21.1818 21.9259 21.143L13.4761 20.8343C12.55 20.7958 11.5854 21.0658 10.8137 21.6447L3.75293 26.6994L11.0452 32.2167L18.1446 32.9111C19.3794 33.0268 20.614 32.6796 21.617 31.908L32.0732 23.8054C32.4591 23.4967 32.6906 23.0722 32.7291 22.5706C32.7675 22.0689 32.6133 21.606 32.2661 21.22C31.8032 20.7192 31.1086 20.5647 30.4527 20.7577L30.453 20.7576Z" fill="white"/>
</svg>
