<svg width="29" height="34" viewBox="0 0 29 34" fill="none" xmlns="http://www.w3.org/2000/svg">
<path d="M28.7991 19.822L26.116 15.623C25.9768 15.3717 25.907 15.0848 25.872 14.7977C25.4189 9.6296 21.4816 5.50244 16.464 5C16.5685 6.07673 16.1504 7.15346 15.3488 7.87117L13.5718 9.41426L14.1294 11.7469C14.3734 12.7518 14.1294 13.7927 13.5023 14.6181C12.8752 15.4076 11.9343 15.9101 10.9237 15.9101C10.3314 15.9101 9.73908 15.7666 9.21629 15.4434L7.23002 14.1872L5.27879 15.4434C5.20903 15.5153 5.10452 15.5511 5 15.5869V15.7664C5 19.3194 6.6377 22.7647 9.21632 25.0257C9.52986 25.3129 9.70413 25.6716 9.70413 26.1024V32.2753C9.70413 32.7778 10.0874 33.1725 10.5405 33.2084L19.5652 33.9979C20.1228 34.0337 20.5756 33.6031 20.5756 33.0649L20.5758 28.6864C20.5758 28.3993 20.8198 28.184 21.0636 28.184H24.1995C25.1752 28.184 25.9417 27.3586 25.9417 26.3896V22.0111C25.9417 21.8316 26.081 21.6521 26.2903 21.6521H27.8235C28.7641 21.6882 29.3217 20.6115 28.7992 19.8219L28.7991 19.822Z" fill="white"/>
<path d="M7.52792 12.1421L10.2026 13.8438C10.9418 14.3247 11.8919 13.6219 11.6808 12.734L10.9418 9.55288C10.8714 9.18287 10.9769 8.77596 11.2585 8.51716L13.6516 6.37175C14.3204 5.77985 13.9683 4.63322 13.0885 4.55918L9.95616 4.30012C9.60411 4.26323 9.25233 4.04107 9.11143 3.67133L7.91488 0.638026C7.56284 -0.212675 6.43671 -0.212675 6.08471 0.638026L4.88816 3.67133C4.74749 4.04133 4.43056 4.26323 4.04343 4.30012L0.911126 4.55918C0.0315164 4.59608 -0.320302 5.74299 0.348449 6.33463L2.74154 8.48004C3.02313 8.73909 3.1287 9.14573 3.05824 9.51576L2.31903 12.7338C2.1079 13.6216 3.05824 14.3242 3.7972 13.8436L6.47191 12.1419C6.8242 11.9572 7.21137 11.9572 7.52806 12.1422L7.52792 12.1421Z" fill="white"/>
</svg>
